PathFileType	4	(X/Y/Z)	C:\Users\Basilio\Documents\Thesis Gigler\squatting_fais\c3dfiles\058\SLS_back_pre5\markers_experimental.trc
DataRate	CameraRate	NumFrames	NumMarkers	Units	OrigDataRate	OrigDataStartFrame	OrigNumFrames
200.000000	200.000000	4	61	mm	200.000000	144	1156
Frame#	Time	FHD			LBHD			RBHD			C7			T10			CLAV			LSHO			LUUPA			LMUPA			LDUPA			LLEP			LMEP			LUL			LRFIN			RSHO			RUPA1			RMUPA			RDUPA			RLEP			RMEP			RUL			RUFIN			LASI			RASI			USACR			LSACR			RSACR			LTHI1			LTHI2			LTHI3			LTHI4			LLFC			LMFC			LTIB1			LTIB3			LTIB4			LLMAL			LMMAL			LHEE			LMT1			LMT5			RTHI			RTHI2			RTHI3			RTHI4			RLFC			RMFC			RTIB1			RTIB2			RTIB3			RTIB4			RLMAL			RMMAL			RHEE			RMT1			RMT2			RMT5			LTIB2			LMT2			LRAD			RRAD			
		X1	Y1	Z1	X2	Y2	Z2	X3	Y3	Z3	X4	Y4	Z4	X5	Y5	Z5	X6	Y6	Z6	X7	Y7	Z7	X8	Y8	Z8	X9	Y9	Z9	X10	Y10	Z10	X11	Y11	Z11	X12	Y12	Z12	X13	Y13	Z13	X14	Y14	Z14	X15	Y15	Z15	X16	Y16	Z16	X17	Y17	Z17	X18	Y18	Z18	X19	Y19	Z19	X20	Y20	Z20	X21	Y21	Z21	X22	Y22	Z22	X23	Y23	Z23	X24	Y24	Z24	X25	Y25	Z25	X26	Y26	Z26	X27	Y27	Z27	X28	Y28	Z28	X29	Y29	Z29	X30	Y30	Z30	X31	Y31	Z31	X32	Y32	Z32	X33	Y33	Z33	X34	Y34	Z34	X35	Y35	Z35	X36	Y36	Z36	X37	Y37	Z37	X38	Y38	Z38	X39	Y39	Z39	X40	Y40	Z40	X41	Y41	Z41	X42	Y42	Z42	X43	Y43	Z43	X44	Y44	Z44	X45	Y45	Z45	X46	Y46	Z46	X47	Y47	Z47	X48	Y48	Z48	X49	Y49	Z49	X50	Y50	Z50	X51	Y51	Z51	X52	Y52	Z52	X53	Y53	Z53	X54	Y54	Z54	X55	Y55	Z55	X56	Y56	Z56	X57	Y57	Z57	X58	Y58	Z58	X59	Y59	Z59	X60	Y60	Z60	X61	Y61	Z61	

145	0.72	-240.7133941650391	1797.180541992188	-635.9969482421876	-397.6058654785157	1762.09912109375	-717.9739990234376	-221.7849121093751	1803.43603515625	-779.118103027344	-419.495086669922	1593.241333007813	-732.9769897460939	-427.809051513672	1289.109619140625	-720.4190673828126	-263.5594787597657	1549.078979492188	-711.4547119140626	-274.8802795410157	1603.287719726563	-863.3535156250002	-112.2204742431641	1541.683227539063	-962.4277954101565	-91.25342559814455	1580.485107421875	-936.3670654296877	-43.77170944213868	1544.4619140625	-948.5270996093752	29.01428222656251	1551.38037109375	-927.1526489257815	32.35783767700196	1497.553100585938	-890.0325927734377	293.2126770019532	1596.52783203125	-889.082458496094	377.1623840332032	1611.376342773438	-802.6658935546877	-293.2694396972657	1605.831787109375	-561.6219482421876	-138.175765991211	1525.769653320313	-447.2566223144532	-115.3950347900391	1564.518798828125	-469.5324096679689	-69.34480285644533	1536.27294921875	-446.2214660644532	-0.881527900695801	1530.3603515625	-452.527557373047	9.935386657714846	1471.38134765625	-502.5285644531251	266.0639648437501	1585.649536132813	-453.5801086425782	354.4813537597657	1611.76708984375	-521.5722656250001	-258.9899902343751	1084.513305664063	-852.589538574219	-258.2528991699219	1069.805541992188	-610.7431640625001	-444.8575439453126	1175.5654296875	-715.2817993164064	-453.9823303222657	1145.811157226563	-744.7128295898439	-450.8097534179689	1141.955810546875	-686.4843750000001	-289.8667602539063	822.8217773437502	-965.963073730469	-253.9400177001954	745.5942382812501	-972.9946289062502	-212.1880187988282	742.4999389648439	-946.6497802734377	-280.7147521972657	691.8635253906251	-980.804870605469	-296.9878540039063	613.2209472656251	-982.834411621094	-287.7537536621094	573.8737182617189	-850.794616699219	-407.5860290527345	548.6933593750001	-951.107360839844	-451.4931030273439	577.1936645507814	-979.794128417969	-530.8892822265626	579.7770385742189	-952.0732421875002	-711.7512207031251	677.3543701171876	-945.279968261719	-699.9821166992189	630.0519409179689	-864.4130859375002	-673.5836791992189	722.7636108398439	-885.4156494140627	-844.189880371094	589.8085937500001	-848.3918457031252	-858.780456542969	651.3394165039064	-935.689636230469	-372.0925292968751	864.261413574219	-559.2728271484376	-338.5691223144532	806.9231567382815	-561.6707763671876	-305.2232666015626	804.9776611328127	-563.7132568359376	-370.2785034179688	732.3613891601564	-584.9235839843751	-366.6400756835938	552.1997680664064	-617.8776245117189	-340.3184204101563	554.6463623046876	-754.1512451171876	-314.5684814453126	358.6644287109376	-727.9192504882814	-340.7629394531251	272.6353454589844	-666.9891967773439	-308.4408874511719	271.1905822753907	-702.9414672851564	-319.0686950683594	230.0048522949219	-741.2907714843751	-371.9482116699219	118.152458190918	-706.2107543945314	-347.4252624511719	143.0022277832032	-794.2207641601565	-438.5793762207032	100.2733840942383	-766.3347778320314	-229.0032196044922	57.55829238891603	-779.5701904296877	-222.3260345458985	62.17310333251955	-727.4078979492189	-271.9730224609376	31.97263717651368	-675.2118530273439	-440.1783447265626	618.5865478515626	-990.0508422851565	-862.5510253906252	593.4459838867189	-893.069519042969	286.6067810058594	1575.348022460938	-810.5380859375002	nan	nan	nan	
146	0.725	-240.8257446289063	1797.124389648438	-636.2326049804689	-397.7825622558595	1761.92822265625	-718.0349731445314	-221.791000366211	1803.381591796875	-779.2249755859377	-419.478485107422	1593.127197265625	-733.0881958007814	-427.7054443359376	1288.965576171875	-720.3508911132814	-263.4951782226563	1549.040649414063	-711.5328369140626	-274.9884948730469	1603.120727539063	-863.3919067382815	-112.2765197753907	1541.710205078125	-962.5695800781252	-91.27674102783205	1580.528930664063	-936.4821777343752	-43.83700561523438	1544.446166992188	-948.655212402344	29.00851631164551	1551.390747070313	-927.3072509765627	32.57026290893555	1497.459228515625	-890.438659667969	293.3197326660157	1596.634765625	-889.3553466796877	377.2444152832032	1611.419921875	-802.7817993164065	-293.2025146484376	1605.797119140625	-561.6292114257814	-138.2174530029297	1525.8447265625	-447.2382812500001	-115.3588180541992	1564.73291015625	-469.483856201172	-69.36048126220705	1536.448364257813	-446.2170410156251	-0.8611575365066531	1530.550170898438	-452.5294799804689	9.976448059082033	1471.491821289063	-502.4112243652345	266.0447692871094	1585.758056640625	-453.4793701171876	354.5111694335938	1611.709838867188	-521.4955444335939	-258.8526000976563	1084.5205078125	-852.5940551757815	-258.0714111328126	1069.754028320313	-610.7350463867189	-445.5654296875001	1175.351928710938	-714.8847656250001	-453.7384643554689	1145.61376953125	-744.5874023437501	-450.6738281250001	1141.935913085938	-686.3554687500001	-289.7372131347657	822.7500000000002	-965.8615722656252	-253.7674865722657	745.4763793945314	-972.8394775390627	-211.9196166992188	742.3475952148439	-946.5986938476565	-280.5619201660157	691.6674804687501	-980.641784667969	-296.7878112792969	612.9756469726564	-982.7253417968752	-287.5833435058594	573.7841186523439	-850.4885864257815	-407.0281066894532	548.1788940429689	-950.9685058593752	-451.1133117675782	576.7590942382814	-979.820983886719	-530.6743164062501	579.4302978515626	-952.108337402344	-711.7941894531251	676.8465576171876	-945.457214355469	-699.9053955078126	629.4100341796876	-864.480407714844	-673.4983520507814	722.2958984375001	-885.4151611328127	-843.7830200195315	589.2831420898439	-848.6174926757815	-858.4780883789065	650.5037841796876	-935.7802734375002	-372.0334472656251	864.3420410156252	-559.1456909179689	-338.8857727050782	806.690124511719	-561.5136108398439	-305.3206481933594	804.8961181640627	-563.8153686523439	-370.7555847167969	732.3042602539064	-584.8518066406251	-367.7381591796876	552.1785278320314	-617.8806762695314	-341.9584960937501	554.8219604492189	-754.3698120117189	-315.2186584472657	358.8885192871094	-728.3120117187501	-341.0532836914063	272.7187805175782	-667.3846435546876	-308.7803649902344	271.3184509277344	-703.5798950195314	-319.3198852539063	230.0941314697266	-741.7863159179689	-371.8769836425782	118.2712707519532	-706.5328369140626	-347.6604309082032	142.8168640136719	-794.7325439453127	-438.6621398925782	100.1546249389649	-766.5787963867189	-228.8716583251954	57.54638290405275	-779.7115478515627	-222.2810363769532	62.3592987060547	-727.5979614257814	-272.0143737792969	32.40188598632813	-675.3093872070314	-439.938201904297	618.2255249023439	-989.9492187500002	-862.2377929687502	592.3502807617189	-893.4564208984377	286.7475891113282	1575.320434570313	-810.6502685546877	nan	nan	nan	
147	0.73	-240.9332427978516	1797.098876953125	-636.3638916015626	-398.1046142578126	1761.617431640625	-718.1195678710939	-221.8905487060547	1803.301879882813	-779.4128417968752	-419.4547729492189	1593.028198242188	-733.2322998046876	-427.6878662109376	1288.6884765625	-720.2345581054689	-263.4205017089844	1548.993896484375	-711.6047973632814	-274.9766235351563	1603.019287109375	-863.4983520507815	-112.2991027832032	1541.767333984375	-962.7270507812502	-91.29744720458986	1580.50927734375	-936.625427246094	-43.87587356567384	1544.449340820313	-948.819030761719	29.04540824890137	1551.338134765625	-927.5153808593752	32.77543258666993	1497.503540039063	-890.8079833984377	293.4262695312501	1596.751220703125	-889.5098266601565	377.3007812500001	1611.488037109375	-802.949401855469	-293.2366333007813	1605.808227539063	-561.7368164062501	-138.2376251220703	1525.909301757813	-447.251434326172	-115.3296279907227	1564.913696289063	-469.5486145019532	-69.35909271240236	1536.625732421875	-446.3001098632814	-0.8531504273414614	1530.583618164063	-452.5202636718751	9.971949577331545	1471.531494140625	-502.4248657226564	266.0415954589844	1585.873291015625	-453.4058837890626	354.5179138183594	1611.677978515625	-521.3497924804689	-258.6791381835938	1084.532470703125	-852.6231079101565	-257.7349548339844	1069.635009765625	-610.7220458984376	-445.4000549316407	1175.2158203125	-714.7355346679689	-453.5631713867189	1145.346923828125	-744.4412231445314	-450.198211669922	1141.735717773438	-686.2811279296876	-289.5285644531251	822.5915527343752	-965.8049926757815	-253.6440887451172	745.0828857421876	-972.5717773437502	-211.6226196289063	742.1870727539064	-946.4611816406252	-280.3319091796876	691.4316406250001	-980.5196533203127	-296.3896789550782	612.7406005859376	-982.5892333984377	-287.2298583984376	573.4639892578126	-850.2895507812502	-406.5581970214845	547.8238525390626	-950.990173339844	-450.8396301269532	576.3572387695314	-979.885437011719	-530.3284301757814	578.9653320312501	-952.1708984375002	-711.6079101562501	676.1748657226564	-945.674743652344	-699.7517700195314	628.9470214843751	-864.5786743164065	-673.4956665039064	721.7337036132814	-885.580017089844	-843.739440917969	587.8590087890626	-848.7840576171877	-858.2043457031252	649.5525512695314	-935.9562988281252	-371.8337097167969	864.3881835937502	-559.0352783203126	-338.8815307617188	806.6124267578127	-561.5750122070314	-305.3925476074219	804.7413330078127	-563.9476318359376	-371.2797241210938	732.3766479492189	-584.7501831054689	-368.6750183105469	552.1483154296876	-617.8552856445314	-345.3919982910157	553.7244873046876	-755.4375610351564	-316.4465332031251	359.0039978027344	-728.7454223632814	-341.2077636718751	272.7803344726563	-667.6891479492189	-309.0183410644532	271.6715087890626	-704.1557006835939	-320.0134277343751	230.1283416748047	-742.1417846679689	-371.8400878906251	118.3569488525391	-706.8357543945314	-347.9235229492188	142.6128845214844	-795.137390136719	-438.6964416503907	100.1183319091797	-766.7844848632814	-229.069320678711	57.31408309936525	-779.9109497070315	-222.3507995605469	62.35131835937501	-727.8201293945314	-271.9701843261719	32.69388580322266	-675.4851074218751	-439.5953369140626	617.8274536132814	-989.957458496094	-861.964782714844	591.5111694335939	-893.567321777344	286.7926025390626	1575.42578125	-810.8460083007815	nan	nan	nan	
148	0.735	-240.9816894531251	1797.05712890625	-636.5952758789064	-398.2247924804689	1761.52294921875	-718.2969360351564	-221.8990478515626	1803.330688476563	-779.4549560546877	-419.5147399902345	1592.85107421875	-733.3115844726564	-427.572723388672	1288.457275390625	-720.1824340820314	-263.5123291015626	1548.896240234375	-711.6706542968751	-274.9218444824219	1602.841064453125	-863.6106567382815	-112.3464813232422	1541.73193359375	-962.8395996093752	-91.2915725708008	1580.582153320313	-936.7362060546877	-43.80650329589844	1544.368408203125	-948.9307861328127	29.06026077270509	1551.368774414063	-927.6651611328127	32.69626998901368	1497.4970703125	-890.7840576171877	293.3744506835938	1596.871704101563	-889.6829833984377	377.2579040527344	1611.567138671875	-803.1374511718752	-293.2481384277344	1605.869506835938	-561.8447265625001	-138.2751922607422	1525.952026367188	-447.3880004882814	-115.5028762817383	1564.940551757813	-469.5733032226564	-69.43596649169923	1536.727905273438	-446.3244018554689	-0.9352338910102846	1530.630004882813	-452.4918518066407	9.881875038146974	1471.642211914063	-502.4199829101564	265.9794006347657	1585.970092773438	-453.2494201660157	354.5140380859376	1611.676513671875	-521.1361694335939	-258.7670288085938	1084.552612304688	-852.8342895507815	-257.3510131835938	1069.508178710938	-610.7210083007814	-445.1489868164064	1175.069458007813	-714.6071777343751	-453.3945922851564	1145.158569335938	-744.2526245117189	-450.0296630859376	1141.602416992188	-686.1076049804689	-289.3348693847657	822.3813476562502	-965.6491699218752	-253.8162994384766	744.2102661132814	-971.9193115234377	-211.4124755859376	742.0681152343751	-946.3062744140627	-280.0165710449219	691.2409667968751	-980.3635253906252	-296.1314392089844	612.5120849609376	-982.4470214843752	-286.8707885742188	573.1750488281251	-850.3031005859377	-406.2786254882814	547.5172119140626	-950.9024047851565	-450.5246582031251	575.9711914062501	-979.8040161132815	-530.1062622070314	578.4257812500001	-952.2276000976565	-711.3153076171876	675.3798217773439	-945.857116699219	-699.5057373046876	628.0698242187501	-864.911804199219	-673.5331420898439	721.4953002929689	-885.6876220703127	-843.3989868164065	587.0630493164064	-848.9358520507815	-858.524597167969	649.1250610351564	-936.1042480468752	-371.6803894042969	864.413024902344	-558.9210815429689	-338.9091796875001	806.5572509765627	-561.4852905273439	-305.5123596191407	804.4945068359377	-564.0860595703126	-371.7868041992188	732.4366455078126	-584.4997558593751	-369.5786437988282	552.0382690429689	-617.8517456054689	-347.1410827636719	553.7055053710939	-755.5112304687501	-317.3862609863282	359.2362365722657	-729.0853881835939	-341.5235290527344	272.7492065429688	-667.9320678710939	-309.1083068847657	271.9582824707032	-704.4760742187501	-320.3743896484376	230.7468261718751	-742.6562500000001	-371.8869628906251	118.4103698730469	-707.1875610351564	-348.0746154785157	142.4785461425782	-795.4812622070315	-438.6655578613282	100.1119232177735	-767.0031738281251	-229.0456542968751	57.24220275878908	-780.0869750976565	-222.3796844482422	62.41776275634767	-727.9684448242189	-271.7500610351563	33.08565902709962	-675.6670532226564	-439.263153076172	617.5020751953126	-989.9312744140627	-861.569519042969	590.6799316406251	-893.7336425781252	286.8299255371094	1575.647705078125	-811.0472412109377	nan	nan	nan	
